<?xml version="1.0" encoding="UTF-8"?>
<svg id="Layer_2" data-name="Layer 2" xmlns="http://www.w3.org/2000/svg" viewBox="0 0 190.56 89.58">
  <defs>
    <style>
      .cls-1 {
        fill: #231f20;
        stroke-width: 0px;
      }
    </style>
  </defs>
  <g id="Layer_1-2" data-name="Layer 1">
    <g>
      <path class="cls-1" d="M9.44,55.65c-2.62,0-4.82.97-6.45,2.82v-25.77H0v43.62h2.98v-11.41c0-3.92,2.51-6.45,6.4-6.45,3.42,0,5.08,1.88,5.08,5.73v12.13h2.99v-12.43c0-5.09-3.07-8.24-8.01-8.24Z"/>
      <path class="cls-1" d="M30.24,55.65c-5.83,0-10.4,4.64-10.4,10.57s4.57,10.58,10.4,10.58,10.4-4.65,10.4-10.58-4.57-10.57-10.4-10.57ZM30.24,74.06c-4.19,0-7.35-3.37-7.35-7.83s3.16-7.83,7.35-7.83,7.35,3.37,7.35,7.83-3.16,7.83-7.35,7.83Z"/>
      <rect class="cls-1" x="43.5" y="16.35" width="2.99" height="59.97"/>
      <path class="cls-1" d="M72.01,55.65c-2.84,0-5.04,1.09-6.54,3.24-1.33-2.05-3.58-3.24-6.18-3.24-2.13,0-4.03.78-5.32,2.11v-1.63h-2.98v20.2h2.98v-12.13c0-3.64,1.94-5.73,5.32-5.73,3.61,0,4.37,2.73,4.37,5.02v12.84h2.98v-12.31c0-3.53,1.96-5.56,5.38-5.56,2.78,0,4.3,1.76,4.3,4.96v12.9h2.99v-13.2c0-5.16-3.66-7.47-7.29-7.47Z"/>
      <path class="cls-1" d="M98.61,71.23c-1.6,1.98-3.5,2.83-6.35,2.83-4.14,0-7.09-2.74-7.49-6.88h17.07v-.61c-.14-6.53-4.15-10.92-9.99-10.92s-10.16,4.64-10.16,10.57,4.55,10.58,10.58,10.58c3.67,0,6.53-1.26,8.48-3.76l.34-.44-2.07-1.87-.4.49ZM91.85,58.4c4.9,0,6.4,3.52,6.84,6.04h-13.79c.68-3.64,3.4-6.04,6.95-6.04Z"/>
      <path class="cls-1" d="M110.86,64.17c-2.82-.94-4.07-1.43-4.07-3.26,0-1.55,1.26-2.52,3.29-2.52,1.83,0,3.06.7,3.97,2.28l.29.5,2.53-1.32-.28-.53c-1.29-2.43-3.47-3.66-6.5-3.66-3.66,0-6.22,2.16-6.22,5.26,0,3.7,2.69,4.89,6.21,6.07,3.52,1.15,5.09,2,5.09,3.97,0,2.29-2.16,3.11-4.19,3.11-2.74,0-4.78-1.23-5.73-3.46l-.23-.55-2.66,1.13.25.55c1.48,3.32,4.38,5.07,8.37,5.07,4.36,0,7.17-2.32,7.17-5.92,0-4.33-3.87-5.6-7.28-6.72Z"/>
      <path class="cls-1" d="M136.91,56.13v2.77c-1.75-2.11-4.24-3.25-7.18-3.25-5.89,0-10.34,4.55-10.34,10.57s4.44,10.58,10.34,10.58c2.94,0,5.43-1.14,7.18-3.25v5.81c0,4.6-2.5,7.35-6.7,7.35-3.35,0-6.09-1.62-7.16-4.23l-.22-.54-2.73,1.02.24.57c1.56,3.79,5.25,6.04,9.87,6.04,5.88,0,9.68-3.96,9.68-10.1v-23.36h-2.98ZM129.73,58.46c4.29,0,7.29,3.2,7.29,7.77s-3,7.77-7.29,7.77-7.29-3.2-7.29-7.77,3-7.77,7.29-7.77Z"/>
      <rect class="cls-1" x="144.37" width="2.99" height="76.33"/>
      <path class="cls-1" d="M167.16,71.23c-1.6,1.98-3.5,2.83-6.35,2.83-4.14,0-7.08-2.74-7.49-6.88h17.06v-.61c-.15-6.53-4.16-10.92-9.99-10.92s-10.16,4.64-10.16,10.57,4.55,10.58,10.58,10.58c3.67,0,6.53-1.26,8.48-3.76l.34-.44-2.07-1.87-.4.49ZM160.39,58.4c4.9,0,6.4,3.52,6.84,6.04h-13.8c.68-3.64,3.41-6.04,6.96-6.04Z"/>
      <path class="cls-1" d="M182.56,55.65c-2.58,0-4.91,1.01-6.45,2.74v-2.26h-2.99v20.2h2.99v-11.41c0-3.92,2.51-6.45,6.39-6.45,3.42,0,5.09,1.88,5.09,5.73v12.13h2.98v-12.43c0-5.09-3.07-8.24-8.01-8.24Z"/>
    </g>
  </g>
</svg>